<svg xmlns="http://www.w3.org/2000/svg" viewBox="0 0 100 100">
  <ellipse class="1" cx="39.74" cy="28.64" rx="10.83" ry="10.97"/>
  <ellipse class="2" cx="61.4" cy="28.64" rx="10.83" ry="10.97"/>
  <ellipse class="3" cx="50" cy="48.27" rx="10.83" ry="10.97"/>
  <ellipse class="4" cx="71.67" cy="48.27" rx="10.83" ry="10.97"/>
  <ellipse class="5" cx="28.33" cy="48.27" rx="10.83" ry="10.97"/>
  <ellipse class="6" cx="39.74" cy="67.9" rx="10.83" ry="10.97"/>
  <ellipse class="7" cx="61.4" cy="67.9" rx="10.83" ry="10.97"/>
  <ellipse class="8" cx="51.14" cy="87.53" rx="10.83" ry="10.97"/>
  <path class="0" d="M64.25,1.5a7.9,7.9,0,0,0-2.48,1.59,8.31,8.31,0,0,0-2.21,1.52,18.44,18.44,0,0,0-3.38,4.57,39,39,0,0,0-2.38,5.36c-.34.93-.64,1.87-.93,2.81-.57.86-1.12,1.74-1.73,2.63a20.27,20.27,0,0,1-.18-3.2c.29-1,.61-2,1-2.92a40.42,40.42,0,0,1,2.51-5.64,20.35,20.35,0,0,1,3.76-5.07,11.45,11.45,0,0,1,2.73-1.89A5.93,5.93,0,0,1,64.25,1.5Z"/>
</svg>
